{"accessors":[{"bufferView":0,"byteOffset":0,"componentType":5126,"count":36,"max":[1.68301,0.627934,0],"min":[-1.49995,0,-1],"normalized":false,"type":"VEC3"},{"bufferView":1,"byteOffset":0,"componentType":5126,"count":36,"max":[1,0,0.000015,1],"min":[-1,-0.000015,-1,1],"normalized":false,"type":"VEC4"},{"bufferView":2,"byteOffset":0,"componentType":5126,"count":36,"max":[0.343658,0.970929,1],"min":[-0.386155,-0.939095,-1],"normalized":false,"type":"VEC3"},{"bufferView":3,"byteOffset":0,"componentType":5126,"count":36,"max":[1,1],"min":[0,0],"normalized":false,"type":"VEC2"},{"bufferView":4,"byteOffset":0,"componentType":5125,"count":36,"max":[35],"min":[0],"normalized":false,"type":"SCALAR"},{"bufferView":5,"byteOffset":0,"componentType":5126,"count":36,"max":[0.999979,0.999979,0.999979],"min":[-1,-1,-1],"normalized":false,"type":"VEC3"},{"bufferView":6,"byteOffset":0,"componentType":5126,"count":36,"max":[0.000119,0.000155,0.015975,1],"min":[-0.999984,-0.999873,-1,1],"normalized":false,"type":"VEC4"},{"bufferView":7,"byteOffset":0,"componentType":5126,"count":36,"max":[1,1,0.00006],"min":[-1,-1,-0.999984],"normalized":false,"type":"VEC3"},{"bufferView":8,"byteOffset":0,"componentType":5126,"count":36,"max":[1,1],"min":[0,0],"normalized":false,"type":"VEC2"},{"bufferView":9,"byteOffset":0,"componentType":5125,"count":36,"max":[35],"min":[0],"normalized":false,"type":"SCALAR"},{"bufferView":10,"byteOffset":0,"componentType":5126,"count":36,"max":[0.999979,0.999979,0.999979],"min":[-1,-1,-1],"normalized":false,"type":"VEC3"},{"bufferView":11,"byteOffset":0,"componentType":5126,"count":36,"max":[0.000119,0.000155,0.015975,1],"min":[-0.999984,-0.999873,-1,1],"normalized":false,"type":"VEC4"},{"bufferView":12,"byteOffset":0,"componentType":5126,"count":36,"max":[1,1,0.00006],"min":[-1,-1,-0.999984],"normalized":false,"type":"VEC3"},{"bufferView":13,"byteOffset":0,"componentType":5126,"count":36,"max":[1,1],"min":[0,0],"normalized":false,"type":"VEC2"},{"bufferView":14,"byteOffset":0,"componentType":5125,"count":36,"max":[35],"min":[0],"normalized":false,"type":"SCALAR"},{"bufferView":15,"byteOffset":0,"componentType":5126,"count":36,"max":[0.999979,0.999979,0.999979],"min":[-1,-1,-1],"normalized":false,"type":"VEC3"},{"bufferView":16,"byteOffset":0,"componentType":5126,"count":36,"max":[0.000119,0.000155,0.015975,1],"min":[-0.999984,-0.999873,-1,1],"normalized":false,"type":"VEC4"},{"bufferView":17,"byteOffset":0,"componentType":5126,"count":36,"max":[1,1,0.00006],"min":[-1,-1,-0.999984],"normalized":false,"type":"VEC3"},{"bufferView":18,"byteOffset":0,"componentType":5126,"count":36,"max":[1,1],"min":[0,0],"normalized":false,"type":"VEC2"},{"bufferView":19,"byteOffset":0,"componentType":5125,"count":36,"max":[35],"min":[0],"normalized":false,"type":"SCALAR"},{"bufferView":20,"byteOffset":0,"componentType":5126,"count":36,"max":[0.999979,0.999979,0.999979],"min":[-1,-1,-1],"normalized":false,"type":"VEC3"},{"bufferView":21,"byteOffset":0,"componentType":5126,"count":36,"max":[0.000119,0.000155,0.015975,1],"min":[-0.999984,-0.999873,-1,1],"normalized":false,"type":"VEC4"},{"bufferView":22,"byteOffset":0,"componentType":5126,"count":36,"max":[1,1,0.00006],"min":[-1,-1,-0.999984],"normalized":false,"type":"VEC3"},{"bufferView":23,"byteOffset":0,"componentType":5126,"count":36,"max":[1,1],"min":[0,0],"normalized":false,"type":"VEC2"},{"bufferView":24,"byteOffset":0,"componentType":5125,"count":36,"max":[35],"min":[0],"normalized":false,"type":"SCALAR"},{"bufferView":25,"byteOffset":0,"componentType":5126,"count":36,"max":[0.999979,0.999979,0.999979],"min":[-1,-1,-1],"normalized":false,"type":"VEC3"},{"bufferView":26,"byteOffset":0,"componentType":5126,"count":36,"max":[0.000119,0.000155,0.015975,1],"min":[-0.999984,-0.999873,-1,1],"normalized":false,"type":"VEC4"},{"bufferView":27,"byteOffset":0,"componentType":5126,"count":36,"max":[1,1,0.00006],"min":[-1,-1,-0.999984],"normalized":false,"type":"VEC3"},{"bufferView":28,"byteOffset":0,"componentType":5126,"count":36,"max":[1,1],"min":[0,0],"normalized":false,"type":"VEC2"},{"bufferView":29,"byteOffset":0,"componentType":5125,"count":36,"max":[35],"min":[0],"normalized":false,"type":"SCALAR"}],"asset":{"generator":"Godot Engine v4.2.1.stable.official@b09f793f564a6c95dc76acc654b390e68441bd01","version":"2.0"},"bufferViews":[{"buffer":0,"byteLength":432,"byteOffset":0},{"buffer":0,"byteLength":576,"byteOffset":432},{"buffer":0,"byteLength":432,"byteOffset":1008},{"buffer":0,"byteLength":288,"byteOffset":1440},{"buffer":0,"byteLength":144,"byteOffset":1728},{"buffer":0,"byteLength":432,"byteOffset":1872},{"buffer":0,"byteLength":576,"byteOffset":2304},{"buffer":0,"byteLength":432,"byteOffset":2880},{"buffer":0,"byteLength":288,"byteOffset":3312},{"buffer":0,"byteLength":144,"byteOffset":3600},{"buffer":0,"byteLength":432,"byteOffset":3744},{"buffer":0,"byteLength":576,"byteOffset":4176},{"buffer":0,"byteLength":432,"byteOffset":4752},{"buffer":0,"byteLength":288,"byteOffset":5184},{"buffer":0,"byteLength":144,"byteOffset":5472},{"buffer":0,"byteLength":432,"byteOffset":5616},{"buffer":0,"byteLength":576,"byteOffset":6048},{"buffer":0,"byteLength":432,"byteOffset":6624},{"buffer":0,"byteLength":288,"byteOffset":7056},{"buffer":0,"byteLength":144,"byteOffset":7344},{"buffer":0,"byteLength":432,"byteOffset":7488},{"buffer":0,"byteLength":576,"byteOffset":7920},{"buffer":0,"byteLength":432,"byteOffset":8496},{"buffer":0,"byteLength":288,"byteOffset":8928},{"buffer":0,"byteLength":144,"byteOffset":9216},{"buffer":0,"byteLength":432,"byteOffset":9360},{"buffer":0,"byteLength":576,"byteOffset":9792},{"buffer":0,"byteLength":432,"byteOffset":10368},{"buffer":0,"byteLength":288,"byteOffset":10800},{"buffer":0,"byteLength":144,"byteOffset":11088}],"buffers":[{"byteLength":11232,"uri":"node_3d0.bin"}],"cameras":[{"perspective":{"yfov":1.30899691581726,"zfar":4000,"znear":0.0500000007450581},"type":"perspective"}],"extensions":{"KHR_lights_punctual":{"lights":[{"color":[1,1,1],"intensity":1,"range":340282346638528860000000000000000000000,"type":"directional"}]}},"extensionsUsed":["GODOT_single_root","KHR_lights_punctual"],"materials":[{"extensions":{},"pbrMetallicRoughness":{"baseColorFactor":[0.99999988079071,0.99999988079071,0.99999988079071,1],"metallicFactor":0,"roughnessFactor":1}},{"extensions":{},"pbrMetallicRoughness":{"baseColorFactor":[0.99999988079071,0.99999988079071,0.99999988079071,1],"metallicFactor":0,"roughnessFactor":1}},{"extensions":{},"pbrMetallicRoughness":{"baseColorFactor":[0.99999988079071,0.99999988079071,0.99999988079071,1],"metallicFactor":0,"roughnessFactor":1}},{"extensions":{},"pbrMetallicRoughness":{"baseColorFactor":[0.99999988079071,0.99999988079071,0.99999988079071,1],"metallicFactor":0,"roughnessFactor":1}},{"extensions":{},"pbrMetallicRoughness":{"baseColorFactor":[0.99999988079071,0.99999988079071,0.99999988079071,1],"metallicFactor":0,"roughnessFactor":1}},{"extensions":{},"pbrMetallicRoughness":{"baseColorFactor":[0.99999988079071,0.99999988079071,0.99999988079071,1],"metallicFactor":0,"roughnessFactor":1}}],"meshes":[{"extras":{"targetNames":[]},"primitives":[{"attributes":{"NORMAL":2,"POSITION":0,"TANGENT":1,"TEXCOORD_0":3},"indices":4,"material":0,"mode":4}]},{"extras":{"targetNames":[]},"primitives":[{"attributes":{"NORMAL":7,"POSITION":5,"TANGENT":6,"TEXCOORD_0":8},"indices":9,"material":1,"mode":4}]},{"extras":{"targetNames":[]},"primitives":[{"attributes":{"NORMAL":12,"POSITION":10,"TANGENT":11,"TEXCOORD_0":13},"indices":14,"material":2,"mode":4}]},{"extras":{"targetNames":[]},"primitives":[{"attributes":{"NORMAL":17,"POSITION":15,"TANGENT":16,"TEXCOORD_0":18},"indices":19,"material":3,"mode":4}]},{"extras":{"targetNames":[]},"primitives":[{"attributes":{"NORMAL":22,"POSITION":20,"TANGENT":21,"TEXCOORD_0":23},"indices":24,"material":4,"mode":4}]},{"extras":{"targetNames":[]},"primitives":[{"attributes":{"NORMAL":27,"POSITION":25,"TANGENT":26,"TEXCOORD_0":28},"indices":29,"material":5,"mode":4}]}],"nodes":[{"children":[1,2,3,4,11],"extensions":{},"name":"Node3D","translation":[0.657612979412079,0.752999007701874,-0.24844999611378]},{"extensions":{},"name":"WorldEnvironment"},{"extensions":{"KHR_lights_punctual":{"light":0}},"name":"DirectionalLight3D","rotation":[0,0.99215292930603,0,0.125030249357224],"translation":[0,18.1685409545898,0]},{"extensions":{},"mesh":0,"name":"CSGPolygon3D2","scale":[1,1,0.100000001490116],"translation":[-5.52419996261597,0.00177275994792581,8.17712020874023]},{"children":[5],"extensions":{},"name":"Spatial1","rotation":[0,0,0.00930246524512768,0.999956727027893],"translation":[-10.8888692855835,-0.75299900770187,14.4843273162842]},{"children":[6,7,8,9,10],"extensions":{},"name":"Spatial"},{"extensions":{},"mesh":1,"name":"CSGBox2"},{"extensions":{},"mesh":2,"name":"CSGBox23","translation":[0,0,3.2124559879303]},{"extensions":{},"mesh":3,"name":"CSGBox32","translation":[3.25009107589722,0,0]},{"extensions":{},"mesh":4,"name":"CSGBox42","translation":[0,0,-5.98550796508789]},{"extensions":{},"mesh":5,"name":"CSGBox52","translation":[-4.50007581710815,0,0]},{"camera":0,"extensions":{},"name":"Camera3D","rotation":[-0.14917747676373,0.394545912742615,0.17899851500988,0.888841509819031],"translation":[0,0,21.8986053466797]}],"scene":0,"scenes":[{"nodes":[0]}]}